<svg width="2072" height="560" viewBox="0 0 2072 560" fill="none" xmlns="http://www.w3.org/2000/svg">
<g clip-path="url(#clip0_1103_9)">
<path d="M280 560C434.64 560 560 434.64 560 280C560 125.36 434.64 0 280 0C125.36 0 0 125.36 0 280C0 434.64 125.36 560 280 560Z" fill="#ED79AA"/>
<path opacity="0.5" fill-rule="evenodd" clip-rule="evenodd" d="M410.41 156.258L377.685 189.21C365.894 177.285 351.853 167.821 336.376 161.365C320.899 154.909 304.294 151.591 287.525 151.603C219.012 151.603 163.1 206.028 160.16 274.278H160.02V398.913C130.185 366.508 113.663 324.047 113.75 280C113.75 183.348 191.555 105 287.525 105C310.381 104.984 333.013 109.506 354.108 118.305C375.202 127.104 394.34 140.004 410.41 156.258ZM410.41 403.743C378.644 435.882 335.543 454.284 290.36 455V408.38C323.242 407.668 354.559 394.194 377.685 370.808L410.41 403.743Z" fill="white"/>
<path fill-rule="evenodd" clip-rule="evenodd" d="M204.417 433.72V274.295H204.54C206.99 228.707 244.475 192.5 290.36 192.5C337.82 192.5 376.302 231.245 376.302 279.055C376.302 326.848 337.82 365.593 290.377 365.593C275.092 365.618 260.082 361.526 246.925 353.745V450.188C232.088 446.615 217.794 441.083 204.417 433.737V433.72ZM290.36 322.805C296.086 322.787 301.753 321.64 307.036 319.432C312.319 317.223 317.115 313.995 321.15 309.932C325.185 305.869 328.38 301.051 330.553 295.753C332.726 290.455 333.833 284.781 333.812 279.055C333.812 254.888 314.352 235.305 290.36 235.305C284.635 235.326 278.971 236.474 273.69 238.683C268.409 240.893 263.615 244.122 259.581 248.184C255.548 252.247 252.355 257.064 250.183 262.361C248.011 267.658 246.904 273.33 246.925 279.055C246.925 303.205 266.367 322.805 290.36 322.805Z" fill="white"/>
</g>
<path d="M661.5 384V200H752.5C788.625 200 812.625 225.375 812.625 263.25C812.625 301.125 788.625 326.5 752.625 326.5H708.5V384H661.5ZM708.5 287.625H746.75C758.625 287.625 765.625 277.875 765.625 263.25C765.625 248.625 758.625 239 746.75 239H708.5V287.625ZM835 384V252H874.75V263C882.5 254.375 893.625 248 909.75 248C914.75 248 919.625 248.625 924.25 249.875V281.125C918.5 280.375 912.875 279.875 907.75 279.875C890.5 279.875 878.25 285.5 878.25 302.25V384H835ZM1005.5 388C963 388 934.625 360 934.625 318C934.625 276 963 248 1005.5 248C1048.25 248 1076.38 276.25 1076.38 318C1076.38 360 1048 388 1005.5 388ZM977.875 318C977.875 340.625 988.875 355.625 1005.5 355.625C1022.12 355.625 1033.12 340.625 1033.12 318C1033.12 295.375 1022.12 280.375 1005.5 280.375C988.875 280.375 977.875 295.375 977.875 318ZM1154.5 384C1127.12 384 1108.88 367.5 1108.88 342.875V279.875H1089.25V252H1108.88V213H1152.12V252H1177.62V279.875H1152.12V340.125C1152.12 346.375 1155 350.5 1161 350.5H1177.62V384H1154.5ZM1264 388C1221.5 388 1193.12 360 1193.12 318C1193.12 276 1221.5 248 1264 248C1306.75 248 1334.88 276.25 1334.88 318C1334.88 360 1306.5 388 1264 388ZM1236.38 318C1236.38 340.625 1247.38 355.625 1264 355.625C1280.62 355.625 1291.62 340.625 1291.62 318C1291.62 295.375 1280.62 280.375 1264 280.375C1247.38 280.375 1236.38 295.375 1236.38 318ZM1357.75 384V252H1397.5V263C1405.25 254.375 1416.38 248 1432.5 248C1462 248 1487.75 269.875 1487.75 302.375V384H1444.5V302.375C1444.5 289.25 1435.75 280.375 1422.75 280.375C1409.62 280.375 1401 289.125 1401 302.25V384H1357.75ZM1515.25 384V200H1558.5V262.625C1565.25 254 1576.25 248 1590 248C1619.5 248 1645.25 269.875 1645.25 302.375V384H1602V302.375C1602 289.25 1593.25 280.375 1580.25 280.375C1567.12 280.375 1558.5 289.125 1558.5 302.25V384H1515.25ZM1736.5 388C1694 388 1665.62 360 1665.62 318C1665.62 276 1694 248 1736.5 248C1779.25 248 1807.38 276.25 1807.38 318C1807.38 360 1779 388 1736.5 388ZM1708.88 318C1708.88 340.625 1719.88 355.625 1736.5 355.625C1753.12 355.625 1764.12 340.625 1764.12 318C1764.12 295.375 1753.12 280.375 1736.5 280.375C1719.88 280.375 1708.88 295.375 1708.88 318ZM1886.25 388C1847.88 388 1822.25 369.625 1822.25 342.125H1864.25C1864.25 351.5 1873 357.75 1886.25 357.75C1899.38 357.75 1908.12 352.75 1908.12 345C1908.12 335.25 1894.5 332.125 1878.38 328.625C1854.75 323.625 1825.62 317.5 1825.62 287.75C1825.62 263.875 1849.88 248 1886.25 248C1922.75 248 1946.88 264.875 1946.88 289.75H1904.75C1904.75 282.875 1897.38 278.25 1886.25 278.25C1875.12 278.25 1867.75 282.125 1867.75 287.75C1867.75 295.625 1879.62 298.125 1894.38 300.875C1918.38 305.375 1950.25 311.375 1950.25 345C1950.25 370.875 1924.5 388 1886.25 388ZM2028 384C2000.62 384 1982.38 367.5 1982.38 342.875V279.875H1962.75V252H1982.38V213H2025.62V252H2051.12V279.875H2025.62V340.125C2025.62 346.375 2028.5 350.5 2034.5 350.5H2051.12V384H2028Z" fill="white"/>
<defs>
<clipPath id="clip0_1103_9">
<rect width="560" height="560" fill="white"/>
</clipPath>
</defs>
</svg>
